<?xml version="1.0" encoding="utf-8"?>
<!-- Generator: Adobe Illustrator 16.0.0, SVG Export Plug-In . SVG Version: 6.00 Build 0)  -->
<!DOCTYPE svg PUBLIC "-//W3C//DTD SVG 1.1//EN" "http://www.w3.org/Graphics/SVG/1.1/DTD/svg11.dtd">
<svg version="1.1" id="Layer_1" xmlns="http://www.w3.org/2000/svg" xmlns:xlink="http://www.w3.org/1999/xlink" x="0px" y="0px"
	 width="113.25px" height="117.5px" viewBox="-406.25 234.5 113.25 117.5" enable-background="new -406.25 234.5 113.25 117.5"
	 xml:space="preserve">
<g>
	<path fill="#FFFFFF" d="M-463.466,322.797c-17.829,0-32.333-14.505-32.333-32.334s14.505-32.333,32.333-32.333
		c17.828,0,32.333,14.504,32.333,32.333S-445.638,322.797-463.466,322.797z M-463.466,264.13c-14.521,0-26.333,11.813-26.333,26.333
		c0,14.521,11.813,26.334,26.333,26.334s26.333-11.813,26.333-26.334C-437.133,275.943-448.946,264.13-463.466,264.13z"/>
</g>
<g>
	<g>
		<path fill="#FFFFFF" d="M-463.736,287.305l-17.043-6.339l-0.164-0.085l-0.159-0.107l0.183-1.375l16.737-5.733l0.486-0.005
			l17.978,5.724l0.029,1.467l-17.512,6.359l-0.08-0.221L-463.736,287.305z M-478.433,280.185l14.838,5.52l15.239-5.533
			l-15.566-4.957L-478.433,280.185z"/>
	</g>
	<g>
		<polygon fill="#FFFFFF" points="-463.185,307.268 -464.299,306.57 -464.299,286.423 -463.789,285.694 -446.276,279.336 
			-445.748,280.792 -462.75,286.966 -462.75,305.331 -446.787,297.557 -446.787,285.659 -445.237,285.659 -445.237,298.041 
			-445.673,298.737 		"/>
	</g>
	<g>
		<polygon fill="#FFFFFF" points="-476.039,282.757 -481.244,280.851 -481.235,280.824 -481.327,280.79 -481.195,280.438 
			-481.832,280.233 -481.832,280.063 -481.56,279.875 -481.688,279.783 -481.608,279.673 -480.996,279.483 -480.787,279.338 
			-475.502,281.304 		"/>
	</g>
	<g>
		<path fill="#FFFFFF" d="M-463.884,307.268l-17.512-8.53l-0.436-0.696V285.68l1.062-0.719l13.459,5.383l3.019-4.257l0.902-0.278
			l0.114,0.043l0.505,0.727v19.992L-463.884,307.268z M-480.282,297.557l15.962,7.774v-16.525l-2.08,2.933l-0.92,0.271
			l-12.963-5.186L-480.282,297.557L-480.282,297.557z"/>
	</g>
	<g>
		<polygon fill="#FFFFFF" points="-481.345,286.399 -484.366,285.19 -484.709,284.021 -481.688,279.783 -480.426,280.684 
			-482.875,284.118 -480.769,284.961 		"/>
	</g>
	<g>
		<polygon fill="#FFFFFF" points="-463.929,287.262 -476.042,282.756 -475.506,281.302 -463.354,285.754 -462.989,286.93 
			-463.027,286.983 		"/>
	</g>
	<g>
		<path fill="#FFFFFF" d="M-459.614,292.01l-0.919-0.271l-3.411-4.809l0.366-1.177l17.357-6.358l0.897,0.278l3.1,4.349l-0.343,1.169
			L-459.614,292.01z M-462.093,286.86l2.471,3.483l15.565-6.226l-2.186-3.064L-462.093,286.86z"/>
	</g>
</g>
</svg>
