<?xml version="1.0" encoding="utf-8"?>
<!-- Generator: Adobe Illustrator 16.0.0, SVG Export Plug-In . SVG Version: 6.00 Build 0)  -->
<!DOCTYPE svg PUBLIC "-//W3C//DTD SVG 1.1//EN" "http://www.w3.org/Graphics/SVG/1.1/DTD/svg11.dtd">
<svg version="1.1" id="Layer_1" xmlns="http://www.w3.org/2000/svg" xmlns:xlink="http://www.w3.org/1999/xlink" x="0px" y="0px"
	 width="73.852px" height="72.655px" viewBox="-391.208 254.449 73.852 72.655"
	 enable-background="new -391.208 254.449 73.852 72.655" xml:space="preserve">
<g>
	<path fill="#FFFFFF" d="M-354.288,322.797c-17.829,0-32.333-14.505-32.333-32.334s14.505-32.333,32.333-32.333
		c17.828,0,32.333,14.504,32.333,32.333S-336.46,322.797-354.288,322.797z M-354.288,264.13c-14.521,0-26.333,11.813-26.333,26.333
		c0,14.521,11.813,26.334,26.333,26.334s26.333-11.813,26.333-26.334C-327.955,275.943-339.768,264.13-354.288,264.13z"/>
</g>
<g>
	<g>
		<path fill="#FFFFFF" d="M-354.558,287.305l-17.043-6.339l-0.164-0.085l-0.159-0.107l0.183-1.375l16.737-5.733l0.486-0.005
			l17.978,5.724l0.029,1.467l-17.512,6.359l-0.08-0.221L-354.558,287.305z M-369.255,280.185l14.838,5.52l15.239-5.533
			l-15.566-4.957L-369.255,280.185z"/>
	</g>
	<g>
		<polygon fill="#FFFFFF" points="-354.007,307.268 -355.121,306.57 -355.121,286.423 -354.611,285.694 -337.098,279.336 
			-336.57,280.792 -353.572,286.966 -353.572,305.331 -337.609,297.557 -337.609,285.659 -336.059,285.659 -336.059,298.041 
			-336.495,298.737 		"/>
	</g>
	<g>
		<polygon fill="#FFFFFF" points="-366.861,282.757 -372.066,280.851 -372.057,280.824 -372.149,280.79 -372.017,280.438 
			-372.654,280.233 -372.654,280.063 -372.382,279.875 -372.51,279.783 -372.43,279.673 -371.818,279.483 -371.609,279.338 
			-366.324,281.304 		"/>
	</g>
	<g>
		<path fill="#FFFFFF" d="M-354.706,307.268l-17.512-8.53l-0.436-0.696V285.68l1.062-0.719l13.459,5.383l3.019-4.257l0.902-0.278
			l0.114,0.043l0.505,0.727v19.992L-354.706,307.268z M-371.104,297.557l15.962,7.774v-16.525l-2.08,2.933l-0.92,0.271
			l-12.963-5.186L-371.104,297.557L-371.104,297.557z"/>
	</g>
	<g>
		<polygon fill="#FFFFFF" points="-372.167,286.399 -375.188,285.19 -375.531,284.021 -372.51,279.783 -371.248,280.684 
			-373.697,284.118 -371.591,284.961 		"/>
	</g>
	<g>
		<polygon fill="#FFFFFF" points="-354.75,287.262 -366.864,282.756 -366.328,281.302 -354.176,285.754 -353.811,286.93 
			-353.849,286.983 		"/>
	</g>
	<g>
		<path fill="#FFFFFF" d="M-350.436,292.01l-0.919-0.271l-3.411-4.809l0.366-1.177l17.357-6.358l0.897,0.278l3.1,4.349l-0.343,1.169
			L-350.436,292.01z M-352.915,286.86l2.471,3.483l15.565-6.226l-2.186-3.064L-352.915,286.86z"/>
	</g>
</g>
</svg>
