<?xml version="1.0" encoding="utf-8"?>
<!-- Generator: Adobe Illustrator 16.0.0, SVG Export Plug-In . SVG Version: 6.00 Build 0)  -->
<!DOCTYPE svg PUBLIC "-//W3C//DTD SVG 1.1//EN" "http://www.w3.org/Graphics/SVG/1.1/DTD/svg11.dtd">
<svg version="1.1" id="Layer_1" xmlns="http://www.w3.org/2000/svg" xmlns:xlink="http://www.w3.org/1999/xlink" x="0px" y="0px"
	 width="276.538px" height="221.539px" viewBox="5.731 6.808 276.538 221.539" enable-background="new 5.731 6.808 276.538 221.539"
	 xml:space="preserve">
<g>
	<path fill="#FFFFFF" d="M142.966,96.124L32.988,55.218l-0.633-0.325L31.328,54.2l0.707-5.324l108-36.997l1.882-0.021
		l116.009,36.938l0.114,5.679L145.036,95.506l-0.237-0.654L142.966,96.124z M41.489,51.979l101.681,37.82L247.712,51.84
		L141.041,17.875L41.489,51.979z"/>
</g>
<g>
	<polygon fill="#FFFFFF" points="144.947,225.017 140.634,222.319 140.634,92.307 142.61,89.487 255.614,48.456 257.662,54.097 
		146.634,94.409 146.634,217.521 253.638,165.403 253.638,87.384 259.638,87.384 259.638,167.278 257.951,169.976 	"/>
</g>
<g>
	<polygon fill="#FFFFFF" points="63.568,66.776 29.978,54.47 30.038,54.306 29.454,54.088 29.818,53.11 27.5,52.369 27.5,51.276 
		28.242,50.761 28.056,50.629 28.566,49.913 30.182,49.413 31.546,48.465 65.646,61.148 	"/>
</g>
<g>
	<path fill="#FFFFFF" d="M142.191,225.017L29.187,169.976l-1.687-2.697V87.515l4.114-2.785l88.312,35.323l20.391-28.756l3.493-1.076
		l0.74,0.275l1.954,2.812v129.012L142.191,225.017z M33.5,165.403l107.004,52.118V101.405l-17.051,24.046l-3.562,1.05L33.499,91.944
		L33.5,165.403L33.5,165.403z"/>
</g>
<g>
	<polygon fill="#FFFFFF" points="29.386,90.3 9.889,82.501 8.56,77.975 28.057,50.628 32.943,54.11 15.662,78.349 31.614,84.729 	
		"/>
</g>
<g>
	<polygon fill="#FFFFFF" points="141.718,95.844 63.554,66.771 65.632,61.143 144.043,89.867 145.456,94.423 145.209,94.771 	"/>
</g>
<g>
	<path fill="#FFFFFF" d="M168.125,126.5l-3.562-1.05l-22.005-31.031l1.416-4.553l112.001-41.03l3.475,1.076l20.007,28.062
		l-1.329,4.526L168.125,126.5z M149.724,94.15l18.367,25.901l104.264-41.704l-16.463-23.091L149.724,94.15z"/>
</g>
</svg>
