<?xml version="1.0" encoding="utf-8"?>
<!-- Generator: Adobe Illustrator 16.0.0, SVG Export Plug-In . SVG Version: 6.00 Build 0)  -->
<!DOCTYPE svg PUBLIC "-//W3C//DTD SVG 1.1//EN" "http://www.w3.org/Graphics/SVG/1.1/DTD/svg11.dtd">
<svg version="1.1" id="Layer_1" xmlns="http://www.w3.org/2000/svg" xmlns:xlink="http://www.w3.org/1999/xlink" x="0px" y="0px"
	 width="70px" height="68.644px" viewBox="3.822 2.669 70 68.644" enable-background="new 3.822 2.669 70 68.644"
	 xml:space="preserve">
<g>
	<g>
		<path fill="#FFFFFF" d="M38.535,69.459c-17.829,0-32.333-14.505-32.333-32.333c0-17.829,14.504-32.333,32.333-32.333
			s32.333,14.504,32.333,32.333C70.868,54.954,56.364,69.459,38.535,69.459z M38.535,10.793c-14.52,0-26.333,11.813-26.333,26.333
			c0,14.521,11.813,26.333,26.333,26.333s26.333-11.812,26.333-26.333C64.868,22.606,53.055,10.793,38.535,10.793z"/>
	</g>
	<g>
		<g>
			<g>
				<path fill="#FFFFFF" d="M48.823,30.956h-7.368v-3.593c0,0-0.413-3.42,1.981-3.42h4.847v-7.361h-8.261
					c0,0-6.912-0.023-6.912,6.914c0,1.49-0.008,4.204-0.017,7.46h-4.746v5.927h4.728c-0.023,9.422-0.058,19.924-0.058,19.924h8.438
					V36.883h5.572L48.823,30.956z"/>
			</g>
		</g>
	</g>
</g>
</svg>
