<?xml version="1.0" encoding="utf-8"?>
<!-- Generator: Adobe Illustrator 16.0.0, SVG Export Plug-In . SVG Version: 6.00 Build 0)  -->
<!DOCTYPE svg PUBLIC "-//W3C//DTD SVG 1.1//EN" "http://www.w3.org/Graphics/SVG/1.1/DTD/svg11.dtd">
<svg version="1.1" id="Layer_1" xmlns="http://www.w3.org/2000/svg" xmlns:xlink="http://www.w3.org/1999/xlink" x="0px" y="0px"
	 width="68.006px" height="67.719px" viewBox="4.629 5.117 68.006 67.719" enable-background="new 4.629 5.117 68.006 67.719"
	 xml:space="preserve">
<g>
	<g>
		<path fill="#FFFFFF" d="M38.67,71.41c-17.829,0-32.333-14.505-32.333-32.333c0-17.829,14.504-32.333,32.333-32.333
			s32.333,14.504,32.333,32.333C71.003,56.905,56.5,71.41,38.67,71.41z M38.67,12.744c-14.52,0-26.333,11.813-26.333,26.333
			c0,14.521,11.813,26.333,26.333,26.333s26.333-11.812,26.333-26.333C65.003,24.557,53.19,12.744,38.67,12.744z"/>
	</g>
	<g>
		<g>
			<path fill="#FFFFFF" d="M27.058,23.453h23.227c2.206,0,4.01,1.632,4.01,4.011V50.69c0,2.379-1.805,4.012-4.01,4.012H27.058
				c-2.206,0-4.011-1.633-4.011-4.012V27.464C23.046,25.084,24.852,23.453,27.058,23.453L27.058,23.453z M45.81,26.925
				c-0.774,0-1.407,0.633-1.407,1.406V31.7c0,0.773,0.633,1.406,1.407,1.406h3.533c0.772,0,1.405-0.633,1.405-1.406v-3.369
				c0-0.773-0.633-1.406-1.405-1.406H45.81z M50.764,36.667h-2.751c0.26,0.849,0.401,1.75,0.401,2.68
				c0,5.197-4.349,9.412-9.712,9.412c-5.364,0-9.713-4.215-9.713-9.412c0-0.93,0.141-1.831,0.401-2.68h-2.869v13.199
				c0,0.684,0.558,1.242,1.242,1.242h21.759c0.685,0,1.243-0.561,1.243-1.242L50.764,36.667L50.764,36.667z M38.7,32.928
				c-3.465,0-6.276,2.723-6.276,6.082c0,3.358,2.811,6.08,6.276,6.08c3.465,0,6.276-2.722,6.276-6.08
				C44.977,35.65,42.167,32.928,38.7,32.928L38.7,32.928z"/>
		</g>
	</g>
</g>
</svg>
