<?xml version="1.0" encoding="utf-8"?>
<!-- Generator: Adobe Illustrator 16.0.0, SVG Export Plug-In . SVG Version: 6.00 Build 0)  -->
<!DOCTYPE svg PUBLIC "-//W3C//DTD SVG 1.1//EN" "http://www.w3.org/Graphics/SVG/1.1/DTD/svg11.dtd">
<svg version="1.1" id="Layer_1" xmlns="http://www.w3.org/2000/svg" xmlns:xlink="http://www.w3.org/1999/xlink" x="0px" y="0px"
	 width="69.152px" height="69.006px" viewBox="4.839 2.833 69.152 69.006" enable-background="new 4.839 2.833 69.152 69.006"
	 xml:space="preserve">
<g>
	<path fill="#FFFFFF" d="M39.507,69.784c-17.829,0-32.333-14.505-32.333-32.334c0-17.829,14.505-32.333,32.333-32.333
		c17.828,0,32.333,14.504,32.333,32.333C71.841,55.279,57.336,69.784,39.507,69.784z M39.507,11.117
		c-14.521,0-26.333,11.813-26.333,26.333c0,14.521,11.813,26.334,26.333,26.334S65.84,51.971,65.84,37.45
		C65.841,22.93,54.028,11.117,39.507,11.117z"/>
</g>
<g>
	<g>
		<path fill="#FFFFFF" d="M19.61,37.447c0-2.686,1.866-4.697,4.479-4.697c2.613,0,4.402,1.939,4.402,4.697
			c0,2.693-1.789,4.704-4.552,4.704C21.402,42.151,19.61,40.14,19.61,37.447z"/>
	</g>
	<g>
		<path fill="#FFFFFF" d="M35.067,37.447c0-2.686,1.864-4.697,4.478-4.697c2.613,0,4.403,1.939,4.403,4.697
			c0,2.693-1.791,4.704-4.552,4.704C36.859,42.151,35.067,40.14,35.067,37.447z"/>
	</g>
	<g>
		<path fill="#FFFFFF" d="M50.523,37.447c0-2.686,1.866-4.697,4.479-4.697c2.613,0,4.403,1.939,4.403,4.697
			c0,2.693-1.79,4.704-4.552,4.704C52.315,42.151,50.523,40.14,50.523,37.447z"/>
	</g>
</g>
</svg>
