<?xml version="1.0" encoding="utf-8"?>
<!-- Generator: Adobe Illustrator 16.0.0, SVG Export Plug-In . SVG Version: 6.00 Build 0)  -->
<!DOCTYPE svg PUBLIC "-//W3C//DTD SVG 1.1//EN" "http://www.w3.org/Graphics/SVG/1.1/DTD/svg11.dtd">
<svg version="1.1" id="Layer_1" xmlns="http://www.w3.org/2000/svg" xmlns:xlink="http://www.w3.org/1999/xlink" x="0px" y="0px"
	 width="67.409px" height="67.54px" viewBox="4.191 3.27 67.409 67.54" enable-background="new 4.191 3.27 67.409 67.54"
	 xml:space="preserve">
<g>
	<path fill="#FFFFFF" d="M37.914,69.474c-17.829,0-32.333-14.505-32.333-32.334c0-17.829,14.505-32.333,32.333-32.333
		c17.828,0,32.333,14.504,32.333,32.333C70.248,54.969,55.742,69.474,37.914,69.474z M37.914,10.807
		c-14.521,0-26.333,11.813-26.333,26.333c0,14.521,11.813,26.333,26.333,26.333S64.247,51.661,64.247,37.14
		C64.248,22.62,52.435,10.807,37.914,10.807z"/>
</g>
<g>
	<g>
		<path fill="#FFFFFF" d="M53.084,35.071v4.139H22.742v-4.139H53.084z"/>
	</g>
</g>
</svg>
