<?xml version="1.0" encoding="utf-8"?>
<!-- Generator: Adobe Illustrator 16.0.0, SVG Export Plug-In . SVG Version: 6.00 Build 0)  -->
<!DOCTYPE svg PUBLIC "-//W3C//DTD SVG 1.1//EN" "http://www.w3.org/Graphics/SVG/1.1/DTD/svg11.dtd">
<svg version="1.1" id="Layer_1" xmlns="http://www.w3.org/2000/svg" xmlns:xlink="http://www.w3.org/1999/xlink" x="0px" y="0px"
	 width="67.682px" height="67.682px" viewBox="2.679 2.05 67.682 67.682" enable-background="new 2.679 2.05 67.682 67.682"
	 xml:space="preserve">
<g>
	<g>
		<path fill="#FFFFFF" d="M36.491,68.352c-17.829,0-32.333-14.505-32.333-32.333S18.662,3.686,36.491,3.686
			c17.829,0,32.333,14.505,32.333,32.333S54.319,68.352,36.491,68.352z M36.491,9.686c-14.52,0-26.333,11.812-26.333,26.333
			c0,14.521,11.813,26.333,26.333,26.333S62.824,50.54,62.824,36.019S51.011,9.686,36.491,9.686z"/>
	</g>
	<g>
		<g>
			<g>
				<path fill="#FFFFFF" d="M46.891,21.025c-4.99-5.431-13.412-5.064-19.012-0.878c-4.773,3.57-8.146,11.499-4.134,16.896
					c0.82,1.102,2.021,1.773,3.352,2.048c0.355,0.073,0.64-0.103,0.765-0.437c0.27-0.721,0.556-1.397,0.619-2.172
					c0.023-0.294-0.213-0.46-0.459-0.473c-3.637-3.996-1.167-8.968,2.378-12.043c3.135-2.718,8.89-5.268,12.574-2.134
					c2.542,2.159,2.736,6.198,2.614,9.252c-0.153,3.827-1.489,7.859-5.463,9.078c-1.308,0.399-2.821,0.24-3.69-0.911
					c-0.98-1.301-0.667-2.869-0.294-4.307c0.572-2.209,1.929-5.337,0.644-7.521c-1.556-2.646-4.688-0.24-5.593,1.543
					c-0.551,1.085-1.544,4.562-0.079,5.453c-1.556,3.938-2.606,8.263-3.317,12.415c-0.319,1.862-0.612,3.917-0.259,5.799
					c0.018,0.1,0.421,1.515,0.824,2.065c-0.063,0.355,0.463,0.485,0.673,0.204c1.433-1.918,2.9-3.756,3.691-6.045
					c0.42-1.215,0.577-2.548,0.828-3.807c0.176-0.882,0.537-1.884,0.628-2.823c0.005-0.001,0.011-0.004,0.017-0.005
					c1.237,0.951,2.901,1.756,4.371,2.041c2.312,0.449,5.037-0.411,6.925-1.717c0.289-0.199,0.578-0.438,0.855-0.707
					c0.873-0.582,1.668-1.336,2.349-2.287C52.61,34.088,51.282,25.802,46.891,21.025L46.891,21.025z M27.196,36.916
					c0.031,0.031,0.063,0.062,0.097,0.085c-0.02,0.046-0.043,0.092-0.065,0.138c-0.047-0.062-0.096-0.121-0.144-0.182
					c0.01-0.06,0.009-0.115-0.004-0.175C27.12,36.828,27.156,36.872,27.196,36.916L27.196,36.916z M24.767,26.079
					c-0.366,0.637-0.676,1.288-0.931,1.965c0.203-0.729,0.476-1.432,0.815-2.105c0.049,0.021,0.104,0.033,0.159,0.042
					C24.796,26.013,24.781,26.046,24.767,26.079L24.767,26.079z M47.01,23.369c-0.058-0.073-0.127-0.135-0.205-0.182
					c-0.017-0.022-0.038-0.041-0.057-0.062c-0.024-0.082-0.053-0.16-0.08-0.24c0.221,0.285,0.435,0.577,0.632,0.881
					C47.207,23.632,47.11,23.5,47.01,23.369L47.01,23.369z"/>
			</g>
		</g>
	</g>
</g>
</svg>
