<?xml version="1.0" encoding="utf-8"?>
<!-- Generator: Adobe Illustrator 16.0.0, SVG Export Plug-In . SVG Version: 6.00 Build 0)  -->
<!DOCTYPE svg PUBLIC "-//W3C//DTD SVG 1.1//EN" "http://www.w3.org/Graphics/SVG/1.1/DTD/svg11.dtd">
<svg version="1.1" id="Layer_1" xmlns="http://www.w3.org/2000/svg" xmlns:xlink="http://www.w3.org/1999/xlink" x="0px" y="0px"
	 width="318.75px" height="258.75px" viewBox="0 533.25 318.75 258.75" enable-background="new 0 533.25 318.75 258.75"
	 xml:space="preserve">
<g>
	<g>
		<path fill="#535353" d="M311.035,631.153l-87.163-87.163c-2.278-2.278-6.578-4.109-14.105,0.097
			c-3.613,2.017-7.763,5.289-11.692,9.22l-0.003,0.002h-0.002c0,0.003-0.003,0.006-0.005,0.006
			c-3.933,3.933-7.211,8.09-9.229,11.703c-4.206,7.529-2.372,11.825-0.093,14.104l17.343,17.344
			c-2.881,5.019-3.742,11.298-2.423,18.195c0.593,3.099,1.611,6.205,3.013,9.237l-26.221,26.221
			c-1.785-0.415-3.742,0.069-5.133,1.464l-31.038,31.035c-0.005,0.005-0.011,0.014-0.019,0.019l-70.509,70.51
			c-3.702,3.705-5.742,8.626-5.742,13.863c0,5.234,2.04,10.159,5.742,13.86c3.823,3.823,8.843,5.734,13.861,5.734
			c5.021,0,10.042-1.911,13.864-5.734l86.01-86.01c0.011-0.009,0.02-0.02,0.027-0.027c0.008-0.008,0.017-0.016,0.025-0.022
			l15.501-15.503c1.029-1.028,1.608-2.425,1.608-3.884c0-0.424-0.048-0.845-0.145-1.252l26.076-26.073
			c3.206,1.533,6.5,2.644,9.787,3.271c6.895,1.319,13.175,0.459,18.195-2.423l17.341,17.34c2.278,2.279,6.575,4.112,14.104-0.091
			c3.617-2.02,7.774-5.297,11.707-9.229C306.996,651.68,318.477,638.596,311.035,631.153L311.035,631.153z M93.715,773.106
			c-3.364,3.361-8.835,3.361-12.199,0c-1.627-1.63-2.525-3.795-2.525-6.099c0-2.303,0.898-4.472,2.525-6.099l51.101-51.102
			l12.197,12.195L93.715,773.106z M152.577,714.242l-12.196-12.196l7.763-7.763l12.199,12.196L152.577,714.242z M168.106,698.714
			l-12.196-12.195l7.763-7.764l12.197,12.196L168.106,698.714z M183.634,683.188l-12.197-12.196l7.763-7.766l12.197,12.195
			L183.634,683.188z M197.324,665.823L188.8,657.3l23.795-23.798c1.289,1.639,2.691,3.219,4.2,4.729
			c1.373,1.372,2.804,2.655,4.281,3.844L197.324,665.823z M242.432,640.584c-3.259-0.622-6.562-1.917-9.741-3.78
			c-0.19-0.131-0.386-0.249-0.587-0.354c-2.643-1.616-5.192-3.63-7.543-5.983c-8.09-8.087-11.898-18.479-10.1-25.626l35.715,35.717
			C247.305,641.259,244.359,640.951,242.432,640.584L242.432,640.584z M282.688,657.541l-19.726-19.727
			c-0.008-0.008-0.016-0.017-0.024-0.024l-65.454-65.45c0.469-1.33,1.874-3.887,4.637-7.219l87.782,87.782
			C286.572,655.67,284.015,657.074,282.688,657.541L282.688,657.541z M297.668,645.139l-87.781-87.776
			c3.324-2.759,5.875-4.16,7.2-4.625l85.204,85.201C301.824,639.264,300.426,641.816,297.668,645.139L297.668,645.139z"/>
	</g>
</g>
<g>
	<g>
		<path fill="#535353" d="M7.012,628.948c-7.441,7.44,4.04,20.527,9.32,25.811c3.932,3.934,8.09,7.211,11.706,9.229
			c7.529,4.203,11.826,2.37,14.104,0.091l17.341-17.34c5.021,2.882,11.301,3.742,18.195,2.423c3.286-0.627,6.581-1.736,9.787-3.271
			l26.076,26.074c-0.096,0.407-0.145,0.828-0.145,1.252c0,1.459,0.579,2.854,1.608,3.885l15.501,15.502
			c0.008,0.008,0.017,0.016,0.025,0.022c0.007,0.009,0.016,0.02,0.027,0.027l86.01,86.01c3.823,3.823,8.843,5.734,13.864,5.734
			c5.018,0,10.038-1.911,13.861-5.734c3.702-3.701,5.742-8.626,5.742-13.86c0-5.237-2.04-10.158-5.742-13.863l-70.509-70.51
			c-0.008-0.005-0.014-0.014-0.019-0.019l-31.038-31.035c-1.391-1.395-3.348-1.879-5.133-1.464l-26.221-26.221
			c1.402-3.032,2.42-6.14,3.013-9.237c1.319-6.897,0.458-13.178-2.423-18.195l17.343-17.344c2.279-2.278,4.112-6.574-0.093-14.104
			c-2.019-3.613-5.297-7.771-9.229-11.703c-0.002,0-0.005-0.003-0.005-0.006h-0.002l-0.003-0.003
			c-3.93-3.93-8.079-7.202-11.692-9.219c-7.527-4.206-11.827-2.375-14.105-0.097L7.012,628.948L7.012,628.948z M173.232,719.8
			l12.197-12.195l51.101,51.102c1.627,1.627,2.525,3.796,2.525,6.099c0,2.304-0.898,4.469-2.525,6.099
			c-3.364,3.362-8.835,3.362-12.199,0L173.232,719.8z M157.705,704.274l12.199-12.196l7.763,7.763l-12.196,12.196L157.705,704.274z
			 M142.178,688.746l12.197-12.196l7.763,7.764l-12.196,12.195L142.178,688.746z M126.65,673.218l12.197-12.195l7.763,7.766
			l-12.197,12.196L126.65,673.218z M96.971,639.869c1.477-1.188,2.908-2.472,4.281-3.844c1.509-1.51,2.911-3.091,4.2-4.729
			l23.795,23.798l-8.524,8.523L96.971,639.869z M75.615,638.379c-1.927,0.367-4.873,0.676-7.744-0.026l35.715-35.716
			c1.799,7.146-2.01,17.538-10.1,25.625c-2.351,2.354-4.9,4.367-7.543,5.983c-0.201,0.104-0.397,0.223-0.587,0.354
			C82.177,636.462,78.875,637.757,75.615,638.379L75.615,638.379z M35.359,655.336c-1.327-0.467-3.884-1.871-7.216-4.638
			l87.782-87.782c2.764,3.332,4.168,5.889,4.637,7.219l-65.454,65.45c-0.008,0.009-0.016,0.018-0.024,0.024L35.359,655.336
			L35.359,655.336z M20.38,642.933c-2.758-3.321-4.157-5.873-4.624-7.2l85.203-85.201c1.325,0.465,3.876,1.866,7.2,4.625
			L20.38,642.933L20.38,642.933z"/>
	</g>
</g>
<path fill="#535353" d="M159.183,673.169c1.188,0.891,21.947,25.209,21.947,25.209l-21.354,12.753l-17.202-21.649L159.183,673.169z"
	/>
</svg>
