<?xml version="1.0" encoding="utf-8"?>
<!-- Generator: Adobe Illustrator 16.0.0, SVG Export Plug-In . SVG Version: 6.00 Build 0)  -->
<!DOCTYPE svg PUBLIC "-//W3C//DTD SVG 1.1//EN" "http://www.w3.org/Graphics/SVG/1.1/DTD/svg11.dtd">
<svg version="1.1" id="Layer_1" xmlns="http://www.w3.org/2000/svg" xmlns:xlink="http://www.w3.org/1999/xlink" x="0px" y="0px"
	 width="66.813px" height="65.936px" viewBox="13.003 7.366 66.813 65.936" enable-background="new 13.003 7.366 66.813 65.936"
	 xml:space="preserve">
<g>
	<path fill="#FFFFFF" d="M46.391,72.643c-17.829,0-32.334-14.504-32.334-32.333S28.562,7.976,46.391,7.976
		S78.724,22.48,78.724,40.31S64.22,72.643,46.391,72.643z M46.391,13.976c-14.521,0-26.334,11.813-26.334,26.334
		c0,14.52,11.813,26.333,26.334,26.333c14.52,0,26.333-11.813,26.333-26.333S60.911,13.976,46.391,13.976z"/>
</g>
<g>
	<path fill="#FFFFFF" d="M46.391,53.011c-12.326,0-22.036-11.003-22.443-11.472V39.08c0.407-0.469,10.117-11.472,22.443-11.472
		S68.427,38.61,68.834,39.08v2.459C68.427,42.008,58.717,53.011,46.391,53.011z M27.964,40.308
		c2.777,2.709,10.083,8.955,18.427,8.955c8.37,0,15.657-6.24,18.427-8.951c-2.777-2.709-10.083-8.955-18.427-8.955
		C38.021,31.356,30.734,37.597,27.964,40.308z"/>
</g>
<g>
	<path fill="#FFFFFF" d="M46.391,51.762c-6.314,0-11.452-5.138-11.452-11.452s5.138-11.452,11.452-11.452
		s11.452,5.138,11.452,11.452S52.705,51.762,46.391,51.762z M46.391,32.605c-4.248,0-7.704,3.456-7.704,7.704
		s3.456,7.704,7.704,7.704s7.704-3.456,7.704-7.704S50.639,32.605,46.391,32.605z"/>
</g>
</svg>
