<?xml version="1.0" encoding="utf-8"?>
<!-- Generator: Adobe Illustrator 16.0.0, SVG Export Plug-In . SVG Version: 6.00 Build 0)  -->
<!DOCTYPE svg PUBLIC "-//W3C//DTD SVG 1.1//EN" "http://www.w3.org/Graphics/SVG/1.1/DTD/svg11.dtd">
<svg version="1.1" id="Layer_1" xmlns="http://www.w3.org/2000/svg" xmlns:xlink="http://www.w3.org/1999/xlink" x="0px" y="0px"
	 width="612px" height="792px" viewBox="0 0 612 792" enable-background="new 0 0 612 792" xml:space="preserve">
<polygon fill="none" stroke="#FFFFFF" stroke-width="6" stroke-miterlimit="1" points="-136.995,468.969 -23.991,427.938 -140,391 
	-248,427.997 -246.973,428.69 -136.995,469.597 "/>
<polyline fill="none" stroke="#FFFFFF" stroke-width="6" stroke-miterlimit="1" points="-24.369,427.561 -137.373,468.591 
	-137.373,598.604 -24.369,543.563 -24.369,463.668 "/>
<polygon fill="none" stroke="#FFFFFF" stroke-width="6" stroke-miterlimit="1" points="-216.407,440.244 -250.507,427.561 
	-250.507,428.653 -249.997,427.938 "/>
<polygon fill="none" stroke="#FFFFFF" stroke-width="6" stroke-miterlimit="1" points="-138.243,469.316 -160.001,500 
	-250.507,463.799 -250.507,543.563 -137.503,598.604 -137.503,469.592 "/>
<polyline fill="none" stroke="#FFFFFF" stroke-width="6" stroke-miterlimit="1" points="-250.507,428.653 -270.004,456 
	-250.507,463.799 "/>
<polygon fill="none" stroke="#FFFFFF" stroke-width="6" stroke-miterlimit="1" points="-137.996,468.969 -216.407,440.244 
	-138.243,469.316 "/>
<polygon fill="none" stroke="#FFFFFF" stroke-width="6" stroke-miterlimit="1" points="-24,427.938 -136.001,468.968 
	-113.996,499.999 -3.993,455.999 "/>
</svg>
