<?xml version="1.0" encoding="utf-8"?>
<!-- Generator: Adobe Illustrator 16.0.0, SVG Export Plug-In . SVG Version: 6.00 Build 0)  -->
<!DOCTYPE svg PUBLIC "-//W3C//DTD SVG 1.1//EN" "http://www.w3.org/Graphics/SVG/1.1/DTD/svg11.dtd">
<svg version="1.1" id="Layer_1" xmlns="http://www.w3.org/2000/svg" xmlns:xlink="http://www.w3.org/1999/xlink" x="0px" y="0px"
	 width="612px" height="792px" viewBox="0 0 612 792" enable-background="new 0 0 612 792" xml:space="preserve">
<g>
	<circle fill="none" stroke="#FFFFFF" stroke-width="6" stroke-miterlimit="1" cx="-510.855" cy="391.751" r="29.333"/>
	<g>
		<path fill-rule="evenodd" clip-rule="evenodd" fill="#FFFFFF" d="M-522.468,376.127h23.227c2.206,0,4.01,1.632,4.01,4.011v23.226
			c0,2.379-1.805,4.012-4.01,4.012h-23.227c-2.206,0-4.011-1.633-4.011-4.012v-23.226
			C-526.479,377.759-524.674,376.127-522.468,376.127L-522.468,376.127z M-503.716,379.599c-0.774,0-1.407,0.633-1.407,1.406v3.369
			c0,0.773,0.633,1.406,1.407,1.406h3.533c0.772,0,1.405-0.633,1.405-1.406v-3.369c0-0.773-0.633-1.406-1.405-1.406H-503.716z
			 M-498.762,389.342h-2.751c0.26,0.849,0.401,1.75,0.401,2.68c0,5.197-4.349,9.412-9.712,9.412c-5.364,0-9.713-4.215-9.713-9.412
			c0-0.93,0.141-1.831,0.401-2.68h-2.869v13.199c0,0.684,0.558,1.242,1.242,1.242h21.759c0.685,0,1.243-0.559,1.243-1.242V389.342z
			 M-510.825,385.602c-3.465,0-6.276,2.723-6.276,6.082c0,3.358,2.811,6.08,6.276,6.08s6.276-2.722,6.276-6.08
			C-504.549,388.324-507.358,385.602-510.825,385.602L-510.825,385.602z M-510.825,385.602"/>
	</g>
</g>
</svg>
