<?xml version="1.0" encoding="utf-8"?>
<!-- Generator: Adobe Illustrator 16.0.0, SVG Export Plug-In . SVG Version: 6.00 Build 0)  -->
<!DOCTYPE svg PUBLIC "-//W3C//DTD SVG 1.1//EN" "http://www.w3.org/Graphics/SVG/1.1/DTD/svg11.dtd">
<svg version="1.1" id="Layer_1" xmlns="http://www.w3.org/2000/svg" xmlns:xlink="http://www.w3.org/1999/xlink" x="0px" y="0px"
	 width="612px" height="792px" viewBox="0 0 612 792" enable-background="new 0 0 612 792" xml:space="preserve">
<g>
	<circle fill="none" stroke="#FFFFFF" stroke-width="6" stroke-miterlimit="1" cx="-253.598" cy="488.418" r="29.333"/>
	<g>
		<g>
			<path fill="#FFFFFF" d="M-243.198,473.425c-4.99-5.431-13.412-5.066-19.012-0.878c-4.773,3.57-8.146,11.499-4.134,16.896
				c0.82,1.102,2.021,1.775,3.352,2.048c0.355,0.073,0.64-0.101,0.765-0.435c0.27-0.721,0.556-1.399,0.619-2.172
				c0.023-0.294-0.213-0.46-0.459-0.473c-3.637-3.996-1.167-8.968,2.378-12.043c3.135-2.718,8.89-5.266,12.574-2.134
				c2.542,2.161,2.736,6.2,2.614,9.252c-0.153,3.827-1.489,7.861-5.463,9.078c-1.308,0.401-2.821,0.242-3.69-0.911
				c-0.98-1.3-0.667-2.869-0.294-4.305c0.572-2.209,1.929-5.337,0.644-7.523c-1.556-2.646-4.688-0.24-5.593,1.543
				c-0.551,1.085-1.544,4.562-0.079,5.453c-1.556,3.938-2.606,8.263-3.317,12.415c-0.319,1.864-0.612,3.917-0.259,5.799
				c0.018,0.1,0.421,1.515,0.824,2.067c-0.063,0.355,0.463,0.485,0.673,0.204c1.433-1.918,2.9-3.756,3.691-6.045
				c0.42-1.215,0.577-2.548,0.828-3.807c0.176-0.882,0.537-1.884,0.628-2.823c0.005-0.001,0.011-0.004,0.017-0.005
				c1.237,0.951,2.901,1.756,4.371,2.041c2.312,0.449,5.037-0.411,6.925-1.717c0.289-0.199,0.578-0.438,0.855-0.707
				c0.873-0.582,1.668-1.336,2.349-2.287C-237.479,486.487-238.807,478.201-243.198,473.425L-243.198,473.425z M-262.893,489.315
				c0.031,0.033,0.063,0.062,0.097,0.085c-0.02,0.046-0.043,0.092-0.065,0.138c-0.047-0.062-0.096-0.121-0.144-0.182
				c0.01-0.058,0.009-0.115-0.004-0.173C-262.969,489.228-262.933,489.271-262.893,489.315L-262.893,489.315z M-265.322,478.479
				c-0.366,0.635-0.676,1.288-0.931,1.963c0.203-0.727,0.476-1.43,0.815-2.105c0.049,0.02,0.104,0.033,0.159,0.042
				C-265.293,478.412-265.308,478.445-265.322,478.479L-265.322,478.479z M-243.079,475.769c-0.058-0.075-0.127-0.135-0.205-0.182
				c-0.017-0.024-0.038-0.041-0.057-0.062c-0.024-0.082-0.053-0.16-0.08-0.24c0.221,0.285,0.435,0.577,0.632,0.881
				C-242.882,476.031-242.979,475.899-243.079,475.769L-243.079,475.769z M-243.079,475.769"/>
		</g>
	</g>
</g>
</svg>
