<?xml version="1.0" encoding="utf-8"?>
<!-- Generator: Adobe Illustrator 16.0.0, SVG Export Plug-In . SVG Version: 6.00 Build 0)  -->
<!DOCTYPE svg PUBLIC "-//W3C//DTD SVG 1.1//EN" "http://www.w3.org/Graphics/SVG/1.1/DTD/svg11.dtd">
<svg version="1.1" id="Layer_1" xmlns="http://www.w3.org/2000/svg" xmlns:xlink="http://www.w3.org/1999/xlink" x="0px" y="0px"
	 width="612px" height="792px" viewBox="0 0 612 792" enable-background="new 0 0 612 792" xml:space="preserve">
<g>
	<g>
		<path fill="#535353" d="M-400.972,755.911l-87.163-87.163c-2.278-2.278-6.578-4.109-14.105,0.097
			c-3.613,2.016-7.763,5.289-11.692,9.219l-0.003,0.002h-0.002c0,0.003-0.003,0.006-0.005,0.006
			c-3.933,3.933-7.211,8.09-9.229,11.703c-4.206,7.53-2.372,11.826-0.093,14.104l17.343,17.344
			c-2.881,5.018-3.742,11.298-2.423,18.195c0.593,3.099,1.611,6.205,3.013,9.237l-26.221,26.221
			c-1.785-0.415-3.742,0.069-5.133,1.464l-31.038,31.035c-0.005,0.005-0.011,0.014-0.019,0.019l-70.509,70.509
			c-3.702,3.705-5.742,8.626-5.742,13.864c0,5.234,2.04,10.159,5.742,13.86c3.823,3.823,8.843,5.734,13.861,5.734
			c5.021,0,10.042-1.911,13.864-5.734l86.01-86.01c0.011-0.009,0.02-0.019,0.027-0.027c0.008-0.008,0.017-0.016,0.025-0.023
			l15.501-15.502c1.029-1.029,1.608-2.425,1.608-3.884c0-0.424-0.048-0.845-0.145-1.252l26.076-26.074
			c3.206,1.534,6.5,2.644,9.787,3.271c6.895,1.319,13.175,0.459,18.195-2.423l17.341,17.34c2.278,2.279,6.575,4.112,14.104-0.091
			c3.616-2.019,7.774-5.297,11.706-9.229C-405.012,776.438-393.531,763.353-400.972,755.911L-400.972,755.911z M-618.292,897.864
			c-3.364,3.362-8.835,3.362-12.199,0c-1.627-1.63-2.525-3.795-2.525-6.098s0.898-4.472,2.525-6.099l51.101-51.102l12.197,12.196
			L-618.292,897.864z M-559.43,839l-12.196-12.196l7.763-7.763l12.199,12.196L-559.43,839z M-543.901,823.472l-12.196-12.196
			l7.763-7.763l12.197,12.196L-543.901,823.472z M-528.373,807.946l-12.197-12.196l7.763-7.766l12.197,12.196L-528.373,807.946z
			 M-514.683,790.581l-8.524-8.523l23.795-23.798c1.289,1.638,2.691,3.219,4.2,4.729c1.373,1.372,2.804,2.656,4.281,3.844
			L-514.683,790.581z M-469.575,765.342c-3.259-0.622-6.562-1.917-9.741-3.78c-0.19-0.131-0.386-0.249-0.587-0.354
			c-2.643-1.616-5.192-3.63-7.543-5.983c-8.09-8.087-11.899-18.479-10.1-25.626l35.715,35.716
			C-464.702,766.017-467.648,765.709-469.575,765.342L-469.575,765.342z M-429.319,782.299l-19.726-19.727
			c-0.008-0.008-0.016-0.016-0.024-0.024l-65.454-65.45c0.469-1.33,1.874-3.887,4.637-7.219l87.782,87.782
			C-425.435,780.428-427.992,781.832-429.319,782.299L-429.319,782.299z M-414.34,769.896l-87.78-87.776
			c3.324-2.759,5.875-4.16,7.2-4.625l85.203,85.201C-410.183,764.022-411.582,766.574-414.34,769.896L-414.34,769.896z
			 M-414.34,769.896"/>
	</g>
</g>
<g>
	<g>
		<path fill="#535353" d="M-704.995,753.706c-7.441,7.441,4.04,20.527,9.32,25.811c3.932,3.933,8.09,7.211,11.706,9.229
			c7.529,4.203,11.826,2.37,14.104,0.091l17.341-17.34c5.021,2.882,11.301,3.742,18.195,2.423c3.286-0.627,6.581-1.736,9.787-3.271
			l26.076,26.074c-0.096,0.407-0.145,0.828-0.145,1.252c0,1.459,0.579,2.854,1.608,3.884l15.501,15.502
			c0.008,0.008,0.017,0.016,0.025,0.023c0.007,0.009,0.016,0.019,0.027,0.027l86.01,86.01c3.823,3.823,8.843,5.734,13.864,5.734
			c5.018,0,10.038-1.911,13.861-5.734c3.702-3.701,5.742-8.626,5.742-13.86c0-5.238-2.04-10.159-5.742-13.864l-70.509-70.509
			c-0.008-0.005-0.014-0.014-0.019-0.019l-31.038-31.035c-1.391-1.395-3.348-1.879-5.133-1.464l-26.221-26.221
			c1.402-3.032,2.42-6.139,3.013-9.237c1.319-6.897,0.458-13.178-2.423-18.195l17.343-17.344c2.279-2.278,4.112-6.574-0.093-14.104
			c-2.019-3.613-5.297-7.771-9.229-11.703c-0.002,0-0.005-0.003-0.005-0.006h-0.002l-0.003-0.002
			c-3.93-3.93-8.079-7.203-11.692-9.219c-7.527-4.206-11.827-2.375-14.105-0.097L-704.995,753.706L-704.995,753.706z
			 M-538.775,844.558l12.197-12.196l51.101,51.102c1.627,1.627,2.525,3.796,2.525,6.099s-0.898,4.468-2.525,6.098
			c-3.364,3.362-8.835,3.362-12.199,0L-538.775,844.558z M-554.303,829.032l12.199-12.196l7.763,7.763l-12.196,12.196
			L-554.303,829.032z M-569.829,813.504l12.197-12.196l7.763,7.763l-12.196,12.196L-569.829,813.504z M-585.357,797.976
			l12.197-12.196l7.763,7.766l-12.197,12.196L-585.357,797.976z M-615.036,764.627c1.477-1.188,2.908-2.472,4.281-3.844
			c1.509-1.51,2.911-3.091,4.2-4.729l23.795,23.798l-8.524,8.523L-615.036,764.627z M-636.392,763.137
			c-1.927,0.367-4.873,0.675-7.744-0.027l35.715-35.716c1.799,7.146-2.01,17.539-10.1,25.626c-2.351,2.354-4.9,4.367-7.543,5.983
			c-0.201,0.104-0.397,0.223-0.587,0.354C-629.83,761.22-633.133,762.515-636.392,763.137L-636.392,763.137z M-676.648,780.094
			c-1.327-0.467-3.884-1.871-7.216-4.638l87.782-87.782c2.764,3.332,4.168,5.889,4.637,7.219l-65.454,65.45
			c-0.008,0.009-0.016,0.017-0.024,0.024L-676.648,780.094L-676.648,780.094z M-691.627,767.69c-2.758-3.321-4.157-5.873-4.624-7.2
			l85.203-85.201c1.325,0.465,3.876,1.866,7.2,4.625L-691.627,767.69L-691.627,767.69z M-691.627,767.69"/>
	</g>
</g>
<path fill="#535353" d="M-552.824,797.927c1.187,0.89,21.947,25.209,21.947,25.209l-21.354,12.753l-17.202-21.65L-552.824,797.927z"
	/>
</svg>
