<?xml version="1.0" encoding="utf-8"?>
<!-- Generator: Adobe Illustrator 16.0.0, SVG Export Plug-In . SVG Version: 6.00 Build 0)  -->
<!DOCTYPE svg PUBLIC "-//W3C//DTD SVG 1.1//EN" "http://www.w3.org/Graphics/SVG/1.1/DTD/svg11.dtd">
<svg version="1.1" id="Layer_1" xmlns="http://www.w3.org/2000/svg" xmlns:xlink="http://www.w3.org/1999/xlink" x="0px" y="0px"
	 width="612px" height="792px" viewBox="0 0 612 792" enable-background="new 0 0 612 792" xml:space="preserve">
<g>
	<circle fill="none" stroke="#FFFFFF" stroke-width="6" stroke-miterlimit="1" cx="-433.599" cy="391.706" r="29.333"/>
	<g>
		<path fill="#FFFFFF" d="M-414.798,380.047c-1.377,0.608-2.869,1.033-4.43,1.217c1.596-0.952,2.812-2.467,3.396-4.269
			c-1.491,0.884-3.144,1.526-4.911,1.87c-1.399-1.491-3.407-2.433-5.622-2.433c-4.258,0-7.713,3.454-7.713,7.711
			c0,0.608,0.072,1.193,0.198,1.756c-6.416-0.321-12.095-3.385-15.904-8.056c-0.667,1.137-1.045,2.468-1.045,3.879
			c0,2.674,1.365,5.037,3.431,6.414c-1.264-0.034-2.444-0.39-3.487-0.964v0.092c0,3.741,2.661,6.862,6.184,7.573
			c-0.644,0.173-1.331,0.265-2.029,0.265c-0.493,0-0.976-0.047-1.457-0.139c0.986,3.064,3.829,5.29,7.206,5.359
			c-2.643,2.065-5.97,3.293-9.583,3.293c-0.62,0-1.228-0.034-1.836-0.104c3.419,2.192,7.47,3.466,11.829,3.466
			c14.184,0,21.94-11.75,21.94-21.939l-0.022-0.999C-417.139,382.95-415.831,381.597-414.798,380.047L-414.798,380.047z
			 M-414.798,380.047"/>
	</g>
</g>
</svg>
